<mxfile host="app.diagrams.net" modified="2022-12-12T03:28:21.922Z" agent="5.0 (Windows NT 10.0; Win64; x64) AppleWebKit/537.36 (KHTML, like Gecko) Chrome/108.0.0.0 Safari/537.36" version="20.6.2" etag="QwRRqC-Tr8Ph1xRDNhng" type="github">
  <diagram id="QnHQxX6FHGWzpJUScxPR" name="第 1 页">
    <mxGraphModel dx="1209" dy="618" grid="1" gridSize="10" guides="1" tooltips="1" connect="1" arrows="1" fold="1" page="1" pageScale="1" pageWidth="827" pageHeight="1169" math="0" shadow="0">
      <root>
        <mxCell id="0" />
        <mxCell id="1" parent="0" />
      </root>
    </mxGraphModel>
  </diagram>
</mxfile>
